<svg width="512" height="379" viewBox="0 0 512 379" fill="none" xmlns="http://www.w3.org/2000/svg">
<path d="M258.35 376.703C260.05 365.103 265.55 354.803 269.65 344.103C294.35 279.903 319.35 215.903 344.15 151.803C347.15 144.003 351.25 136.503 352.85 128.103C405.15 128.203 457.45 128.203 509.75 128.303C509.75 128.703 509.75 129.103 509.85 129.603C499.35 140.903 488.25 151.703 476.85 162.103C466.55 171.603 457.05 181.903 447.05 191.703C402.65 235.403 358.35 279.203 313.85 322.903C295.55 340.903 276.85 358.703 258.35 376.703Z" fill="#6DBCDA"/>
<path d="M157.85 127.803C159.45 139.403 165.15 149.703 169.35 160.403C196.75 230.503 224.55 300.403 252.15 370.403C253.05 372.603 253.35 375.003 253.95 377.403C248.65 375.103 245.65 370.103 241.75 366.203C219.65 344.503 197.75 322.603 175.65 300.903C147.75 273.403 119.75 246.003 91.85 218.503C63.75 190.903 35.65 163.203 7.54995 135.603C5.64995 133.803 3.34995 132.303 2.44995 129.603C18.35 128.003 34.25 128.103 50.25 128.103C82.6499 128.203 115.15 128.103 147.55 128.103C150.15 128.103 152.85 128.803 155.35 127.103C156.25 127.103 157.25 127.003 158.15 127.003C157.95 127.303 157.85 127.503 157.85 127.803Z" fill="#6DBCDA"/>
<path d="M157.85 127.803C157.85 127.503 157.85 127.203 157.95 126.903C180.25 97.9027 202.65 69.0027 224.75 40.0027C234.55 27.2027 245.25 15.2027 253.85 1.50273C254.85 1.40273 255.85 1.30273 256.85 1.20273C288.75 43.0027 320.75 84.8027 352.65 126.603C352.65 127.103 352.65 127.603 352.75 128.003C290.85 128.003 229.05 128.003 167.15 127.903C164.15 128.003 161.05 127.903 157.85 127.803Z" fill="#6DBCDA"/>
<path d="M397.85 1.60273C394.45 3.20273 394.55 6.70274 393.55 9.60274C380.95 46.5027 368.45 83.5027 356.05 120.503C355.25 122.803 354.85 125.203 352.75 126.803C320.85 84.9027 288.85 43.1027 256.95 1.20273C258.75 -0.497265 261.05 0.102735 263.15 0.102735C305.75 0.102735 348.35 0.102735 391.05 0.102735C393.35 0.202735 395.95 -0.697265 397.85 1.60273Z" fill="#D6F7F8"/>
<path d="M351.95 127.103C355.35 125.503 355.25 122.003 356.25 119.103C368.85 82.2027 381.35 45.2027 393.75 8.20274C394.55 5.90274 394.95 3.50274 397.05 1.90274C431.35 41.3027 478.35 88.3027 510.85 127.303C509.05 129.003 506.75 128.403 504.65 128.403C462.05 128.403 401.45 128.403 358.75 128.403C356.45 128.503 353.85 129.403 351.95 127.103Z" fill="white"/>
<path d="M159.85 127.103C156.45 125.503 156.55 122.003 155.55 119.103C142.95 82.2027 130.55 45.2027 118.05 8.30275C117.25 6.00275 116.85 3.60275 114.75 2.00275C80.45 41.4027 33.45 88.4027 0.949951 127.403C2.74995 129.103 5.04995 128.503 7.14995 128.503C49.75 128.503 110.35 128.503 153.05 128.503C155.35 128.503 157.95 129.403 159.85 127.103Z" fill="white"/>
<path d="M155.15 127.103C152.75 112.203 146.65 98.5027 142.15 84.3027C133.95 58.8027 125.65 33.4027 117.25 8.00273C116.55 5.80273 116.35 3.20273 114.35 1.50273C116.35 -0.597271 118.85 0.202729 121.15 0.202729C163.15 0.202729 205.15 0.202729 247.05 0.202729C249.35 0.202729 251.95 -0.597271 253.85 1.60273C245.25 15.3027 234.45 27.3027 224.75 40.1027C202.65 69.1027 180.25 98.0027 157.95 127.003C157.05 127.003 156.15 127.003 155.15 127.103Z" fill="#D6F7F8"/>
<path d="M0.949951 127.903C1.44995 128.403 1.94995 129.003 2.44995 129.503C1.54995 129.403 1.04995 128.903 0.949951 127.903Z" fill="#7AC1DC"/>
<path d="M509.75 128.303C510.15 128.203 510.65 128.203 511.05 128.203C510.65 128.703 510.25 129.103 509.85 129.603C509.75 129.103 509.75 128.703 509.75 128.303Z" fill="#7BC1DC"/>
<path d="M256.85 378.203C257.35 377.603 257.85 377.103 258.45 376.503C257.85 377.103 257.35 377.703 256.85 378.203Z" fill="#6DBCDA"/>
<path d="M156.55 126.903C156.55 127.503 156.55 128.003 156.65 128.603C179.25 186.103 201.95 243.503 224.45 301.203C234.35 326.603 245.25 350.503 253.95 377.703C254.95 377.903 255.95 378.103 256.95 378.303C289.35 295.203 321.75 212.203 354.15 129.103C354.15 128.103 354.15 127.203 354.25 126.303C291.45 126.303 228.75 126.403 165.95 126.403C162.95 126.503 159.75 126.803 156.55 126.903Z" fill="white"/>
</svg>
